<?xml version="1.0" encoding="UTF-8"?>
<svg width="20px" height="20px" viewBox="0 0 20 20" version="1.1" xmlns="http://www.w3.org/2000/svg" xmlns:xlink="http://www.w3.org/1999/xlink">
    <title>复制文件</title>
    <g id="页面-1" stroke="none" stroke-width="1" fill="none" fill-rule="evenodd" opacity="0.8">
        <g id="画板" transform="translate(-30.000000, -685.000000)">
            <g id="复制文件" transform="translate(30.000000, 685.000000)">
                <rect id="矩形" x="0" y="0" width="20" height="20"></rect>
                <path d="M12.4027916,3.74875373 C12.8015952,3.74875373 13.1571951,3.83516118 13.4695912,4.00797606 C13.7819874,4.18079094 14.0511798,4.39348619 14.2771685,4.6460618 C14.5031572,4.89863741 14.6759721,5.1711532 14.7956132,5.46360917 C14.9152543,5.75606513 14.9750748,6.01528746 14.9750748,6.24127616 L14.9750748,17.5074776 C14.9750748,17.8929877 14.8986374,18.2386175 14.7457627,18.5443669 C14.592888,18.8501163 14.3934862,19.1093387 14.1475573,19.3220339 C13.9016285,19.5347291 13.6257893,19.7008973 13.3200399,19.8205384 C13.0142905,19.9401795 12.7085411,20 12.4027916,20 L2.57228315,20 C2.31970753,20 2.04386839,19.926886 1.7447657,19.780658 C1.44566302,19.63443 1.16650051,19.441675 0.907278165,19.2023928 C0.648055821,18.9631107 0.432037207,18.6872715 0.259222324,18.3748754 C0.0864074415,18.0624792 0,17.7467597 0,17.4277169 L0,6.3210369 C0,6.04187439 0.0664672657,5.75274178 0.199401797,5.45363909 C0.332336328,5.15453639 0.505151218,4.87869724 0.717846466,4.62612165 C0.930541713,4.37354605 1.17647059,4.16417416 1.45563311,3.998006 C1.73479562,3.83183784 2.02725158,3.74875373 2.333001,3.74875373 L12.4027916,3.74875373 L12.4027916,3.74875373 Z M11.226321,16.2113659 C11.5719508,16.2113659 11.8677302,16.0917248 12.113659,15.8524427 C12.3595879,15.6131605 12.4825524,15.3207046 12.4825524,14.9750748 C12.4825524,14.629445 12.3595879,14.3336657 12.113659,14.0877368 C11.8677302,13.8418079 11.5719508,13.7188435 11.226321,13.7188435 L3.74875373,13.7188435 C3.40312396,13.7188435 3.10734463,13.8418079 2.86141574,14.0877368 C2.61548686,14.3336657 2.49252242,14.629445 2.49252242,14.9750748 C2.49252242,15.3207046 2.61548686,15.6131605 2.86141574,15.8524427 C3.10734463,16.0917248 3.40312396,16.2113659 3.74875373,16.2113659 L11.226321,16.2113659 L11.226321,16.2113659 Z M11.226321,11.226321 C11.5719508,11.226321 11.8677302,11.10668 12.113659,10.8673978 C12.3595879,10.6281157 12.4825524,10.3356597 12.4825524,9.99002993 C12.4825524,9.64440015 12.3595879,9.34862082 12.113659,9.10269194 C11.8677302,8.85676306 11.5719508,8.73379862 11.226321,8.73379862 L3.74875373,8.73379862 C3.40312396,8.73379862 3.10734463,8.85676306 2.86141574,9.10269194 C2.61548686,9.34862082 2.49252242,9.64440015 2.49252242,9.99002993 C2.49252242,10.3356597 2.61548686,10.6281157 2.86141574,10.8673978 C3.10734463,11.10668 3.40312396,11.226321 3.74875373,11.226321 L11.226321,11.226321 L11.226321,11.226321 Z M14.7557328,0 C15.3273513,0 15.8524427,0.169491524 16.331007,0.508474571 C16.8095713,0.847457618 17.2249917,1.26620139 17.5772682,1.76470588 C17.9295447,2.26321037 18.2053839,2.80159522 18.4047857,3.37986041 C18.6041875,3.95812561 18.7038884,4.48654036 18.7038884,4.96510467 L18.7038884,15.55334 C18.7038884,15.8325025 18.6208043,16.0884015 18.4546361,16.3210369 C18.2884679,16.5536723 18.0857428,16.7530741 17.8464606,16.9192423 C17.6071785,17.0854104 17.3479562,17.218345 17.0687936,17.3180459 C16.7896311,17.4177468 16.5304088,17.4675972 16.2911267,17.4675972 L16.2113659,17.4675972 L16.2113659,5.56331008 C16.1050183,4.64606183 15.8192091,3.94150882 15.3539382,3.44965106 C14.8886674,2.9577933 14.2705218,2.63875043 13.4995015,2.49252244 L3.76869393,2.49252244 C3.78198738,2.46593554 3.78863411,2.41940846 3.78863411,2.35294119 C3.78863411,2.08707213 3.86839482,1.81455634 4.02791625,1.53539383 C4.18743769,1.25623132 4.39680957,1.00365571 4.6560319,0.777667012 C4.91525423,0.551678314 5.20438683,0.365569974 5.52342971,0.219341992 C5.84247259,0.0731140105 6.16151546,0 6.48055833,0 L14.7557328,0 L14.7557328,0 Z" id="形状" fill="#19BC9C" fill-rule="nonzero"></path>
            </g>
        </g>
    </g>
</svg>