<?xml version="1.0" encoding="UTF-8"?>
<svg width="20px" height="20px" viewBox="0 0 20 20" version="1.1" xmlns="http://www.w3.org/2000/svg" xmlns:xlink="http://www.w3.org/1999/xlink">
    <title>ai语料管理</title>
    <g id="页面-1" stroke="none" stroke-width="1" fill="none" fill-rule="evenodd" opacity="0.8">
        <g id="画板" transform="translate(-30.000000, -461.000000)">
            <g id="ai语料管理" transform="translate(30.000000, 461.000000)">
                <rect id="矩形" x="0" y="0" width="20" height="20"></rect>
                <path d="M1.18,7.34089298 C0.53,7.34089298 0,7.93054571 0,8.66761162 L0,14.0085046 C0,14.7455705 0.53,15.3465627 1.18,15.3465627 C1.83,15.3465627 2.36,14.7455705 2.36,14.0085046 L2.36,8.66761162 C2.35,7.93054571 1.83,7.34089298 1.18,7.34089298 Z" id="路径" fill="#19BC9C" fill-rule="nonzero"></path>
                <polygon id="路径" fill="#19BC9C" fill-rule="nonzero" points="7.58 12.1261517 9.67 12.1261517 8.62 8.87172218"></polygon>
                <path d="M14.12,4.66477675 L14.12,2 L12.94,2 L12.94,4.66477675 L7.06,4.66477675 L7.06,2 L5.88,2 L5.88,4.66477675 C4.58,4.66477675 3.53,5.85542169 3.53,7.32955351 L3.53,15.3352232 C3.53,16.8093551 4.58,18 5.88,18 L14.12,18 C15.42,18 16.47,16.8093551 16.47,15.3352232 L16.47,7.34089298 C16.47,5.86676116 15.42,4.66477675 14.12,4.66477675 Z M11.69,15.1311127 C11.56,15.2785259 11.39,15.3692417 11.2,15.3579022 C11.09,15.3579022 10.99,15.3352232 10.91,15.2898653 C10.83,15.2445074 10.76,15.1878101 10.71,15.1084337 C10.66,15.0290574 10.6,14.9156627 10.54,14.75691 C10.49,14.6208363 10.43,14.4734231 10.38,14.3373494 L10.05,13.3394755 L7.21,13.3394755 L6.88,14.3486889 C6.75,14.7455705 6.64,15.0063785 6.55,15.1537916 C6.46,15.2898653 6.31,15.3579022 6.1,15.3579022 C5.92,15.3579022 5.77,15.2785259 5.63,15.1424522 C5.49,14.995039 5.43,14.8249468 5.43,14.6435152 C5.43,14.54146 5.45,14.4280652 5.48,14.3146704 C5.51,14.2012757 5.56,14.042523 5.64,13.8384125 L7.42,8.70163005 C7.47,8.55421687 7.53,8.37278526 7.6,8.1686747 C7.66,7.98724309 7.74,7.81715096 7.83,7.6583983 C7.91,7.52232459 8.02,7.40892984 8.15,7.32955351 C8.28,7.25017718 8.44,7.20481928 8.64,7.20481928 C8.84,7.20481928 9,7.25017718 9.13,7.32955351 C9.26,7.40892984 9.37,7.52232459 9.45,7.6583983 C9.53,7.79447201 9.6,7.93054571 9.65,8.08929837 C9.71,8.23671155 9.78,8.44082211 9.86,8.70163005 L11.68,13.804394 C11.82,14.1899362 11.89,14.4734231 11.89,14.6548547 C11.89,14.8022679 11.82,14.97236 11.69,15.1311127 L11.69,15.1311127 Z M14,14.4620836 C14,14.75691 13.94,14.9836995 13.81,15.1311127 C13.69,15.2785259 13.52,15.3579022 13.34,15.3579022 C13.15,15.3579022 12.99,15.2785259 12.88,15.1311127 C12.76,14.97236 12.7,14.75691 12.7,14.4620836 L12.7,10.2551382 C12.7,9.96031184 12.76,9.7448618 12.88,9.59744862 C13,9.45003544 13.15,9.38199858 13.34,9.38199858 C13.53,9.38199858 13.69,9.46137491 13.81,9.59744862 C13.93,9.7448618 14,9.94897236 14,10.2097803 L14,14.4620836 Z M13.81,8.49751949 C13.68,8.62225372 13.53,8.69029057 13.36,8.69029057 C13.18,8.69029057 13.02,8.62225372 12.9,8.49751949 C12.77,8.37278526 12.71,8.19135365 12.71,7.96456414 C12.71,7.76045358 12.78,7.57902197 12.91,7.45428774 C13.03,7.31821403 13.2,7.25017718 13.37,7.25017718 C13.54,7.25017718 13.69,7.30687456 13.82,7.43160879 C13.95,7.55634302 14.01,7.72643515 14.01,7.96456414 C14,8.19135365 13.93,8.36144578 13.81,8.49751949 Z" id="形状" fill="#19BC9C" fill-rule="nonzero"></path>
                <path d="M18.82,7.34089298 C18.17,7.34089298 17.64,7.94188519 17.64,8.6789511 L17.64,14.0198441 C17.64,14.75691 18.17,15.3579022 18.82,15.3579022 C19.47,15.3579022 20,14.75691 20,14.0198441 L20,8.66761162 C20,7.93054571 19.47,7.34089298 18.82,7.34089298 L18.82,7.34089298 Z" id="路径" fill="#19BC9C" fill-rule="nonzero"></path>
            </g>
        </g>
    </g>
</svg>