<?xml version="1.0" encoding="UTF-8"?>
<svg width="20px" height="20px" viewBox="0 0 20 20" version="1.1" xmlns="http://www.w3.org/2000/svg" xmlns:xlink="http://www.w3.org/1999/xlink">
    <title>指标模型-模型管理</title>
    <g id="页面-1" stroke="none" stroke-width="1" fill="none" fill-rule="evenodd" opacity="0.8">
        <g id="画板" transform="translate(-30.000000, -517.000000)" fill="#19BC9C" fill-rule="nonzero">
            <g id="指标模型-模型管理" transform="translate(30.000000, 517.000000)">
                <path d="M16.9142857,5.74712644 C17.4857143,5.51724138 18.0571429,5.86206897 18.0571429,6.43678161 L18.0571429,10.9195402 C17.9428571,10.9195402 17.8285714,11.0344828 17.7142857,11.0344828 L17.1428571,11.4942529 L16.9142857,11.2643678 L16.8,10.5747126 C16.6857143,10.2298851 16.3428571,9.88505747 16,9.88505747 L14.8571429,9.88505747 C14.4,9.88505747 14.0571429,10.2298851 14.0571429,10.5747126 L13.7142857,11.2643678 L13.4857143,11.3793103 L12.9142857,10.9195402 C12.5714286,10.6896552 12.1142857,10.8045977 11.7714286,11.0344828 L10.9714286,11.8390805 C10.7428571,12.183908 10.6285714,12.6436782 10.8571429,12.9885057 L11.3142857,13.5632184 L11.2,13.7931034 L10.5142857,13.908046 C10.1714286,14.0229885 9.82857143,14.3678161 9.82857143,14.7126437 L9.82857143,15.862069 C9.82857143,16.3218391 10.1714286,16.6666667 10.5142857,16.7816092 L11.2,16.8965517 L11.3142857,17.1264368 L10.8571429,17.7011494 L10.8571429,17.816092 L10.6285714,17.9310345 C10.0571429,18.1609195 9.48571429,17.816092 9.48571429,17.2413793 L9.48571429,9.42528736 C9.48571429,9.1954023 9.71428571,8.85057471 9.94285714,8.73563218 L16.9142857,5.74712644 Z M0,6.43678161 C0,5.86206897 0.571428571,5.51724138 1.14285714,5.74712644 L8.11428571,8.85057471 C8.34285714,8.96551724 8.57142857,9.1954023 8.57142857,9.54022989 L8.57142857,17.3563218 C8.57142857,17.9310345 8,18.2758621 7.42857143,18.045977 L0.571428571,15.0574713 C0.342857143,14.9425287 0.114285714,14.7126437 0.114285714,14.3678161 L0.114285714,6.43678161 L0,6.43678161 Z M7.2,0.344827586 C8.22857143,-0.114942529 9.94285714,-0.114942529 10.9714286,0.344827586 L16.9142857,3.10344828 C17.9428571,3.56321839 17.9428571,4.25287356 16.9142857,4.71264368 L10.8571429,7.35632184 C9.82857143,7.81609195 8.22857143,7.81609195 7.2,7.35632184 L1.14285714,4.71264368 C0.114285714,4.25287356 0.114285714,3.56321839 1.14285714,3.10344828 L7.2,0.344827586 Z" id="形状"></path>
                <path d="M16,11 C16.1111111,11 16.1111111,11.1097561 16.2222222,11.1097561 L16.4444444,11.9878049 C16.4444444,12.097561 16.5555556,12.097561 16.5555556,12.2073171 L16.7777778,12.3170732 L17.1111111,12.4268293 L17.3333333,12.4268293 L18.1111111,11.9878049 L18.3333333,11.9878049 L19.1111111,12.7560976 C19.2222222,12.8658537 19.2222222,12.8658537 19.1111111,12.9756098 L18.5555556,13.7439024 C18.5555556,13.8536585 18.4444444,13.9634146 18.5555556,13.9634146 L18.7777778,14.5121951 C18.7777778,14.6219512 18.8888889,14.6219512 19,14.6219512 L19.8888889,14.8414634 C20,14.8414634 20,14.9512195 20,15.0609756 L20,16.0487805 L19.9826389,16.1139482 L19.9826389,16.1139482 L19.90625,16.203125 C19.8958333,16.2202744 19.8888889,16.2408537 19.8888889,16.2682927 L19,16.4878049 C18.8888889,16.4878049 18.7777778,16.597561 18.7777778,16.597561 L18.5555556,17.1463415 L18.5555556,17.3658537 L19.1111111,18.1341463 L19.1111111,18.3536585 L18.3333333,19.1219512 C18.2222222,19.2317073 18.2222222,19.2317073 18.1111111,19.1219512 L17.3333333,18.5731707 C17.2222222,18.5731707 17.1111111,18.4634146 17.1111111,18.5731707 L16.5555556,18.7926829 L16.4444444,18.902439 L16.4444444,19.0121951 L16.2222222,19.8902439 C16.2222222,20 16.1111111,20 16,20 L15,20 C14.8888889,20 14.8888889,19.8902439 14.7777778,19.8902439 L14.6666667,19.5609756 L14.5555556,19.0121951 C14.5555556,18.902439 14.4444444,18.7926829 14.4444444,18.7926829 L13.8888889,18.5731707 L13.6666667,18.5731707 L12.8888889,19.1219512 L12.6666667,19.1219512 L11.8888889,18.3536585 C11.7777778,18.2439024 11.7777778,18.2439024 11.8888889,18.1341463 L12.4444444,17.3658537 C12.4444444,17.2560976 12.5555556,17.1463415 12.4444444,17.1463415 L12.4444444,17.0365854 L12.2222222,16.597561 C12.2222222,16.4878049 12.1111111,16.4878049 12,16.4878049 L11.1111111,16.2682927 C11.0185185,16.2682927 11.0030864,16.1920732 11.0005144,16.1031504 L11,15.0609756 C11,14.9512195 11.1111111,14.9512195 11.1111111,14.8414634 L11.4444444,14.7317073 L12,14.6219512 C12.1111111,14.6219512 12.1111111,14.5121951 12.2222222,14.5121951 L12.4444444,13.9634146 L12.4444444,13.7439024 L11.8888889,12.9756098 L11.8888889,12.7560976 L12.6666667,11.9878049 C12.7777778,11.8780488 12.7777778,11.8780488 12.8888889,11.9878049 L13.6666667,12.5365854 L13.8888889,12.5365854 L14.4444444,12.3170732 C14.5555556,12.3170732 14.5555556,12.2073171 14.5555556,12.097561 L14.7777778,11.2195122 C14.7777778,11.1097561 14.8888889,11.1097561 15,11.1097561 L16,11.1097561 L16,11 Z M15.5,14 C14.6715729,14 14,14.6715729 14,15.5 C14,16.3284271 14.6715729,17 15.5,17 C16.3284271,17 17,16.3284271 17,15.5 C17,14.6715729 16.3284271,14 15.5,14 Z" id="形状结合"></path>
            </g>
        </g>
    </g>
</svg>