<?xml version="1.0" encoding="UTF-8"?>
<svg width="18px" height="18px" viewBox="0 0 18 18" version="1.1" xmlns="http://www.w3.org/2000/svg" xmlns:xlink="http://www.w3.org/1999/xlink">
    <title>角色</title>
    <g id="页面-1" stroke="none" stroke-width="1" fill="none" fill-rule="evenodd" opacity="0.8">
        <g id="02数据集管理_新增编辑" transform="translate(-32.000000, -518.000000)">
            <g id="编组-3" transform="translate(0.000000, 106.000000)">
                <g id="编组-6" transform="translate(0.000000, 281.000000)">
                    <g id="角色" transform="translate(32.000000, 131.000000)">
                        <rect id="矩形" x="0" y="0" width="18" height="18"></rect>
                        <path d="M9,2.75609756 L7.20000001,1 L1.80000001,1 C1.32261033,1 0.864773283,1.18501688 0.527207799,1.51434906 C0.189642315,1.84368123 0,2.29035152 0,2.75609756 L0,15.2439024 C0,15.7096485 0.189642315,16.1563188 0.527207799,16.4856509 C0.864773283,16.8149831 1.32261033,17 1.80000001,17 L16.2,17 C16.6773897,17 17.1352267,16.8149831 17.4727922,16.4856509 C17.8103577,16.1563188 18,15.7096485 18,15.2439024 L18,4.51219511 C18,4.04644908 17.8103577,3.59977879 17.4727922,3.27044661 C17.1352267,2.94111444 16.6773897,2.75609755 16.2,2.75609756 L9,2.75609756 Z M9,5.48778714 C10.2426407,5.48778714 11.25,6.47059445 11.25,7.68292683 C11.25,8.89525921 10.2426407,9.87804879 9,9.87804879 C7.75735931,9.87804879 6.74998182,8.89525921 6.74998182,7.68292683 C6.74759565,7.10002835 6.98387638,6.54032656 7.40635555,6.12815175 C7.82883473,5.71597695 8.40252906,5.48545917 9,5.48778714 L9,5.48778714 Z M13.05,14.2682927 L4.95,14.2682927 L4.95,13.3902439 C4.95,11.935445 6.15883118,10.7560976 7.65,10.7560976 L10.35,10.7560976 C11.8411688,10.7560976 13.05,11.935445 13.05,13.3902439 L13.05,14.2682927 Z" id="形状" fill="#19BC9C" fill-rule="nonzero"></path>
                    </g>
                </g>
            </g>
        </g>
    </g>
</svg>