<?xml version="1.0" encoding="UTF-8"?>
<svg width="20px" height="20px" viewBox="0 0 20 20" version="1.1" xmlns="http://www.w3.org/2000/svg" xmlns:xlink="http://www.w3.org/1999/xlink">
    <title>储存数据源</title>
    <g id="页面-1" stroke="none" stroke-width="1" fill="none" fill-rule="evenodd" opacity="0.8">
        <g id="02数据集管理_新增编辑" transform="translate(-30.000000, -237.000000)">
            <g id="编组-3" transform="translate(0.000000, 106.000000)">
                <g id="储存数据源" transform="translate(30.000000, 131.000000)">
                    <rect id="矩形" x="0" y="0" width="20" height="20"></rect>
                    <path d="M2.87028263,3.34411764 C3.108479,3.05294117 3.34667537,2.78235293 3.58487176,2.52941177 C3.77013559,2.30294118 3.96422154,2.09117647 4.17007025,1.89411764 C4.37591897,1.69411763 4.53177585,1.54999998 4.6376409,1.45588236 C4.7846757,1.33529412 4.9375919,1.22941178 5.10521157,1.13823529 C5.26989055,1.04411765 5.49338344,1 5.76980886,1 L14.3507597,1 C14.5242607,1 14.7212874,1.03529412 14.947721,1.10882354 C15.1741546,1.18235296 15.391766,1.32941178 15.6034962,1.55588235 C15.7093612,1.68823529 15.8475739,1.85294116 16.021075,2.05294118 C16.194576,2.25294119 16.359255,2.44411766 16.5180526,2.62941177 C16.7033165,2.85588235 16.8885803,3.09411764 17.0738441,3.34411764 L2.87028263,3.34411764 L2.87028263,3.34411764 Z M18.6412351,5.38235295 C18.4030387,5.05588236 17.9766378,4.89411764 17.364973,4.89411764 L2.69678157,4.89411764 C2.09982029,4.89411764 1.66753798,5.05588234 1.39993466,5.38235295 C1.13527201,5.70882354 1,6.10000001 1,6.55294118 L1,9.59705882 C1,10.05 1.14997549,10.4352941 1.44992648,10.7470588 C1.74987748,11.0588235 2.14981212,11.2147059 2.65561183,11.2147059 L17.3826172,11.2147059 C17.9001797,11.2147059 18.3001144,11.0588235 18.5794805,10.7470588 C18.8617873,10.4352941 19,10.0529412 19,9.59705882 L19,6.55294118 C19,6.10000001 18.8794315,5.70882354 18.6412351,5.38235295 Z M11.0071884,8.59705882 L8.99281164,8.59705882 C8.84577684,8.59705882 8.73108971,8.55588236 8.64286881,8.47058823 C8.55758862,8.38529411 8.50759679,8.24999999 8.49289332,8.06764705 C8.49289332,7.92647058 8.53994445,7.80588235 8.63110602,7.70588235 C8.72520829,7.60588235 8.84283614,7.55588236 8.98987093,7.55588236 L11.0042477,7.55588236 C11.1512825,7.55588236 11.2659696,7.59411764 11.3541905,7.67352941 C11.4394707,7.75294117 11.4835811,7.88235295 11.4835811,8.06764705 C11.4718183,8.42058822 11.3130208,8.59705882 11.0071884,8.59705882 L11.0071884,8.59705882 Z M18.6412351,13.1676471 C18.4030387,12.8411765 17.9766378,12.6794118 17.364973,12.6794118 L2.69678157,12.6794118 C2.09982029,12.6794118 1.66753798,12.8411765 1.39993466,13.1676471 C1.13527201,13.4941177 1,13.8852941 1,14.3382353 L1,17.3823529 C1,17.8352941 1.14997549,18.2205882 1.44992648,18.5323529 C1.74987748,18.8441176 2.14981212,19 2.65561183,19 L17.3826172,19 C17.9001797,19 18.3001144,18.8441176 18.5794805,18.5323529 C18.8588466,18.2205882 18.9971118,17.8382353 18.9971118,17.3823529 L18.9971118,14.3382353 C19,13.8852941 18.8794315,13.4941177 18.6412351,13.1676471 L18.6412351,13.1676471 Z M11.0071884,16.3823529 L8.99281164,16.3823529 C8.84577684,16.3823529 8.73108971,16.3411765 8.64286881,16.2558824 C8.55758862,16.1705882 8.50759679,16.0352941 8.49289332,15.8529412 C8.49289332,15.7117647 8.53994445,15.5911765 8.63110602,15.4911765 C8.72520829,15.3911765 8.84283614,15.3411765 8.98987093,15.3411765 L11.0042477,15.3411765 C11.1512825,15.3411765 11.2659696,15.3794118 11.3541905,15.4588235 C11.4394707,15.5382353 11.4835811,15.6676471 11.4835811,15.8529412 C11.4718183,16.2058823 11.3130208,16.3823529 11.0071884,16.3823529 L11.0071884,16.3823529 Z" id="形状" fill="#19BC9C" fill-rule="nonzero"></path>
                </g>
            </g>
        </g>
    </g>
</svg>