<?xml version="1.0" encoding="UTF-8"?>
<svg width="20px" height="20px" viewBox="0 0 20 20" version="1.1" xmlns="http://www.w3.org/2000/svg" xmlns:xlink="http://www.w3.org/1999/xlink">
    <title>单文本</title>
    <g id="页面-1" stroke="none" stroke-width="1" fill="none" fill-rule="evenodd" opacity="0.8">
        <g id="画板" transform="translate(-30.000000, -629.000000)">
            <g id="单文本" transform="translate(30.000000, 629.000000)">
                <rect id="矩形" x="0" y="0" width="20" height="20"></rect>
                <path d="M16,1 C18.209139,1 20,2.790861 20,5 L20,15 C20,17.209139 18.209139,19 16,19 L4,19 C1.790861,19 0,17.209139 0,15 L0,5 C0,2.790861 1.790861,1 4,1 L16,1 Z M5,5.99999999 C4.73478352,5.99999999 4.48042961,6.10535683 4.29289323,6.29289321 C4.10535685,6.48042959 4,6.7347835 4,6.99999999 L4,6.99999999 L4,13 C4.00008455,13.552225 4.44777503,13.9998469 5,13.9998469 C5.55222497,13.9998469 5.99991545,13.552225 6,13 L6,13 L6,6.99999999 C6,6.44771525 5.55228476,5.99999999 5,5.99999999 Z" id="形状结合" fill="#19BC9C" fill-rule="nonzero"></path>
            </g>
        </g>
    </g>
</svg>