<?xml version="1.0" encoding="UTF-8"?>
<svg width="20px" height="20px" viewBox="0 0 20 20" version="1.1" xmlns="http://www.w3.org/2000/svg" xmlns:xlink="http://www.w3.org/1999/xlink">
    <title>数据源管理</title>
    <defs>
        <path d="M2.00000006,11.1875 L2.00517493,11.3181588 C2.15653774,13.2259617 5.60927733,14.75 9.84615389,14.75 C9.96332312,14.75 10.0804923,14.7481 10.1955693,14.7462 C10.1244308,14.8868 10.084677,15.0445 10.084677,15.2098 L10.084677,15.2098 L10.084677,16.6652 C10.084677,17.0566 10.3064616,17.4024 10.6412308,17.6057 C10.5638154,17.9648 10.6768,18.3505 10.9822769,18.6279 L10.9822769,18.6279 L11.8171077,19.386 C11.1873231,19.4601 10.5261539,19.5 9.84615389,19.5 C5.51298466,19.5 2.00000006,17.9059 2.00000006,15.9375 L2.00000006,15.9375 L2.00000006,11.1875 Z M17.6923077,5.25 L17.6923077,10 L17.6850766,10.1545113 C17.6322265,10.7179889 17.2916307,11.246875 16.7277538,11.7119 C16.5038769,11.5219 16.2046769,11.406 15.8761846,11.406 L15.8761846,11.406 L14.2755692,11.406 C13.8445538,11.406 13.4637538,11.6055 13.2398769,11.9095 C13.1603692,11.8962 13.0787692,11.8886 12.9950769,11.8886 C12.6624,11.8886 12.3485538,12.0064 12.1142154,12.2192 L12.1142154,12.2192 L10.9822769,13.2471 C10.8860308,13.3345 10.8086154,13.4333 10.7500308,13.5397 C10.4529231,13.5549 10.1516307,13.5625 9.84615383,13.5625 C5.51298459,13.5625 2,11.9684 2,10 L2,10 L2,5.25 L2.00517487,5.38065876 C2.15653768,7.28846168 5.60927724,8.8125 9.84615383,8.8125 C14.1793231,8.8125 17.6923077,7.2184 17.6923077,5.25 L17.6923077,5.25 Z M9.84615388,0.5 C14.179465,0.5 17.6923077,2.09498558 17.6923077,4.0625 C17.6923077,6.03001442 14.179465,7.625 9.84615388,7.625 C5.51284278,7.625 2.00000006,6.03001442 2.00000006,4.0625 C2.00000006,2.09498558 5.51284278,0.5 9.84615388,0.5 Z" id="path-1"></path>
        <filter x="-9.6%" y="-7.9%" width="119.1%" height="115.8%" filterUnits="objectBoundingBox" id="filter-2">
            <feGaussianBlur stdDeviation="1" in="SourceAlpha" result="shadowBlurInner1"></feGaussianBlur>
            <feOffset dx="0" dy="1" in="shadowBlurInner1" result="shadowOffsetInner1"></feOffset>
            <feComposite in="shadowOffsetInner1" in2="SourceAlpha" operator="arithmetic" k2="-1" k3="1" result="shadowInnerInner1"></feComposite>
            <feColorMatrix values="0 0 0 0 0.600514482   0 0 0 0 1   0 0 0 0 0.949191309  0 0 0 0.5 0" type="matrix" in="shadowInnerInner1"></feColorMatrix>
        </filter>
    </defs>
    <g id="页面-1" stroke="none" stroke-width="1" fill="none" fill-rule="evenodd">
        <g id="02数据集管理_新增编辑" transform="translate(-20.000000, -125.000000)">
            <g id="编组-3" transform="translate(0.000000, 106.000000)">
                <g id="数据源管理" transform="translate(20.000000, 19.000000)">
                    <rect id="矩形" x="0" y="0" width="20" height="20"></rect>
                    <g id="形状结合" fill-rule="nonzero">
                        <use fill="#19BC9C" xlink:href="#path-1"></use>
                        <use fill="black" fill-opacity="1" filter="url(#filter-2)" xlink:href="#path-1"></use>
                    </g>
                    <path d="M18.8221538,15.0483 L17.4391385,15.0483 L18.4162462,14.161 C18.4852923,14.0983 18.4852923,13.9957 18.4162462,13.933 L17.2843077,12.9051 C17.2152616,12.8424 17.102277,12.8424 17.0332308,12.9051 L16.0561231,13.7924 L16.0561231,12.5365 C16.0561231,12.4472 15.9766154,12.375 15.8782769,12.375 L14.2776616,12.375 C14.1793231,12.375 14.0998154,12.4472 14.0998154,12.5365 L14.0998154,13.7924 L13.1227077,12.9051 C13.0536615,12.8424 12.940677,12.8424 12.8716308,12.9051 L11.7396923,13.933 C11.6706462,13.9957 11.6706462,14.0983 11.7396923,14.161 L12.7168,15.0483 L11.3337847,15.0483 C11.2354462,15.0483 11.1559385,15.1205 11.1559385,15.2098 L11.1559385,16.6633 C11.1559385,16.7526 11.2354462,16.8248 11.3337847,16.8248 L12.7168,16.8248 L11.7396923,17.7121 C11.6706462,17.7748 11.6706462,17.8774 11.7396923,17.9401 L12.8716308,18.968 C12.940677,19.0307 13.0536615,19.0307 13.1227077,18.968 L14.0998154,18.0807 L14.0998154,19.3366 C14.0998154,19.4259 14.1793231,19.4981 14.2776616,19.4981 L15.8782769,19.4981 C15.9766154,19.4981 16.0561231,19.4259 16.0561231,19.3366 L16.0561231,18.0807 L17.0332308,18.968 C17.1022769,19.0307 17.2152615,19.0307 17.2843077,18.968 L18.4162462,17.9401 C18.4852923,17.8774 18.4852923,17.7748 18.4162462,17.7121 L17.4391385,16.8248 L18.8221538,16.8248 C18.9204923,16.8248 19,16.7526 19,16.6633 L19,15.2098 C19,15.1205 18.9204923,15.0483 18.8221538,15.0483 Z M15.0769231,17.125 C14.3550769,17.125 13.7692308,16.593 13.7692308,15.9375 C13.7692308,15.282 14.3550769,14.75 15.0769231,14.75 C15.7987692,14.75 16.3846154,15.282 16.3846154,15.9375 C16.3846154,16.593 15.7987693,17.125 15.0769231,17.125 Z" id="形状" fill="#FFC123" fill-rule="nonzero"></path>
                </g>
            </g>
        </g>
    </g>
</svg>