<?xml version="1.0" standalone="no"?><!DOCTYPE svg PUBLIC "-//W3C//DTD SVG 1.1//EN" "http://www.w3.org/Graphics/SVG/1.1/DTD/svg11.dtd"><svg t="1650014236202" class="icon" viewBox="0 0 1024 1024" version="1.1" xmlns="http://www.w3.org/2000/svg" p-id="3639" xmlns:xlink="http://www.w3.org/1999/xlink" width="200" height="200"><defs><style type="text/css">@font-face { font-family: feedback-iconfont; src: url("//at.alicdn.com/t/font_1031158_u69w8yhxdu.woff2?t=1630033759944") format("woff2"), url("//at.alicdn.com/t/font_1031158_u69w8yhxdu.woff?t=1630033759944") format("woff"), url("//at.alicdn.com/t/font_1031158_u69w8yhxdu.ttf?t=1630033759944") format("truetype"); }
</style></defs><path d="M765.3 130.2h-44.6c0-36.3-28.8-65.1-65.1-65.1H376.7c-36.3 0-65.1 28.8-65.1 65.1h-52.1c-34.4 0-66.9 13-91.1 37.2-23.2 24.2-37.2 56.7-37.2 91.1v571.7c0 34.4 13.9 66.9 38.1 91.1 24.2 24.2 56.7 37.2 90.2 37.2h506.6c69.7-0.9 127.4-58.6 127.4-129.2V258.5c0.1-70.7-57.5-128.3-128.2-128.3z m-397.9 0c0-5.6 3.7-9.3 9.3-9.3h278.9c5.6 0 9.3 3.7 9.3 9.3v93c0 5.6-3.7 9.3-9.3 9.3H376.7c-5.6 0-9.3-3.7-9.3-9.3v-93z m470.4 699.1c0 40-32.5 72.5-72.5 72.5H259.6c-40 0-72.5-32.5-72.5-72.5V258.5c0-40 32.5-72.5 72.5-72.5h52.1v37.2c0 36.3 28.8 65.1 65.1 65.1h278.9c36.3 0 65.1-28.8 65.1-65.1V186h43.7c40.9 0 72.5 32.5 72.5 72.5v570.8h0.8z m0 0" p-id="3640" fill="#159D87"></path><path d="M673.3 418.4c-7.4 0-13.9 2.8-19.5 8.4L462.3 617.3l-84.6-84.6c-5.6-5.6-12.1-7.4-19.5-7.4s-13.9 2.8-19.5 7.4c-11.2 11.2-11.2 28.8-0.9 39l105 105c5.6 5.6 12.1 7.4 19.5 7.4s13.9-2.8 19.5-7.4l0.9-0.9 210.1-210.1c11.2-11.2 11.2-28.8 0-39-5.6-5.6-13-8.3-19.5-8.3z m0 0" p-id="3641" fill="#159D87"></path></svg>