<?xml version="1.0" encoding="UTF-8"?>
<svg width="24px" height="24px" viewBox="0 0 24 24" version="1.1" xmlns="http://www.w3.org/2000/svg" xmlns:xlink="http://www.w3.org/1999/xlink">
    <title>服务器接口模块</title>
    <defs>
        <path d="M11.27516,15.1878788 L10.8643242,13.6363636 L0,13.6363636 L0,16.060606 C0,17.1272727 0.82167158,18 1.82593684,18 L11.4121053,18 L11.3208084,17.9030303 C10.6360821,17.1272727 10.5904337,15.9636364 11.27516,15.1878788 Z M4.79308422,16.5454545 L2.51066315,16.5454545 C2.14547578,16.5454545 1.82593684,16.2060606 1.82593684,15.8181818 C1.82593684,15.430303 2.14547578,15.0909091 2.51066315,15.0909091 L4.79308422,15.0909091 C5.15827159,15.0909091 5.47781053,15.430303 5.47781053,15.8181818 C5.47781053,16.2060606 5.15827159,16.5454545 4.79308422,16.5454545 Z M11.3664569,10.969697 L14.3336042,7.81818182 L0,7.81818182 L0,12.1818182 L10.7730274,12.1818182 C10.8643242,11.7454545 11.0469179,11.3090909 11.3664569,10.969697 Z M4.79308422,10.7272727 L2.51066315,10.7272727 C2.14547578,10.7272727 1.82593684,10.3878788 1.82593684,10 C1.82593684,9.6121212 2.14547578,9.27272727 2.51066315,9.27272727 L4.79308422,9.27272727 C5.15827159,9.27272727 5.47781053,9.6121212 5.47781053,10 C5.47781053,10.3878788 5.15827159,10.7272727 4.79308422,10.7272727 Z M15.9769474,3.93939393 C15.9769474,2.87272727 15.1552758,2 14.1510105,2 L1.82593684,2 C0.82167158,2 0,2.87272727 0,3.93939393 L0,6.36363636 L15.9769474,6.36363636 L15.9769474,3.93939393 Z M4.79308422,4.90909091 L2.51066315,4.90909091 C2.14547578,4.90909091 1.82593684,4.56969698 1.82593684,4.18181818 C1.82593684,3.79393939 2.14547578,3.45454545 2.51066315,3.45454545 L4.79308422,3.45454545 C5.15827159,3.45454545 5.47781053,3.79393939 5.47781053,4.18181818 C5.47781053,4.56969698 5.15827159,4.90909091 4.79308422,4.90909091 L4.79308422,4.90909091 Z M11.1838632,4.90909091 C10.8186758,4.90909091 10.4991368,4.56969698 10.4991368,4.18181818 C10.4991368,3.79393939 10.8186758,3.45454545 11.1838632,3.45454545 C11.5490505,3.45454545 11.8685895,3.79393939 11.8685895,4.18181818 C11.8685895,4.56969698 11.5490505,4.90909091 11.1838632,4.90909091 Z M13.4662842,4.90909091 C13.1010968,4.90909091 12.7815579,4.56969698 12.7815579,4.18181818 C12.7815579,3.79393939 13.1010968,3.45454545 13.4662842,3.45454545 C13.8314716,3.45454545 14.1510105,3.79393939 14.1510105,4.18181818 C14.1510105,4.56969698 13.8314716,4.90909091 13.4662842,4.90909091 Z" id="path-1"></path>
        <filter x="-9.4%" y="-9.4%" width="118.8%" height="118.7%" filterUnits="objectBoundingBox" id="filter-2">
            <feGaussianBlur stdDeviation="1" in="SourceAlpha" result="shadowBlurInner1"></feGaussianBlur>
            <feOffset dx="0" dy="1" in="shadowBlurInner1" result="shadowOffsetInner1"></feOffset>
            <feComposite in="shadowOffsetInner1" in2="SourceAlpha" operator="arithmetic" k2="-1" k3="1" result="shadowInnerInner1"></feComposite>
            <feColorMatrix values="0 0 0 0 0.600514482   0 0 0 0 1   0 0 0 0 0.949191309  0 0 0 0.5 0" type="matrix" in="shadowInnerInner1"></feColorMatrix>
        </filter>
        <path d="M15.8400021,9.66060605 C16.2051895,9.27272725 16.7529705,9.27272725 17.1181579,9.66060605 L17.1181579,9.66060605 L19.7201179,12.4242424 C20.0853053,12.7636364 20.0853053,13.3939394 19.7657663,13.830303 L19.7657663,13.830303 L19.1266884,14.5090909 L19.7657663,15.1878788 L17.5746421,17.5151515 C17.3464,17.7575758 16.9812126,17.8545455 16.6616737,17.7575758 L16.6616737,17.7575758 L14.1510105,16.9818182 L13.6032295,17.5636364 C13.4206358,17.7575758 13.1467453,17.7575758 12.9641516,17.5636364 L12.9641516,17.5636364 L12.3250737,16.8848485 C12.14248,16.6909091 12.14248,16.4 12.3250737,16.2060606 L12.3250737,16.2060606 L12.8728548,15.6242424 L12.14248,12.9575758 C12.0511832,12.6181818 12.14248,12.230303 12.3707221,11.9878788 L12.3707221,11.9878788 L14.5618463,9.66060605 L15.2009242,10.3393939 Z M18.1224232,12.0848485 L17.4833453,12.7636364 L18.1224232,13.4424242 L18.7615011,12.7636364 L18.1224232,12.0848485 Z M16.798619,10.7272727 L16.1595411,11.4060606 L16.798619,12.0848485 L17.4376969,11.4060606 L16.798619,10.7272727 Z" id="path-3"></path>
        <filter x="-88.7%" y="-59.3%" width="277.4%" height="266.2%" filterUnits="objectBoundingBox" id="filter-4">
            <feOffset dx="0" dy="2" in="SourceAlpha" result="shadowOffsetOuter1"></feOffset>
            <feGaussianBlur stdDeviation="2" in="shadowOffsetOuter1" result="shadowBlurOuter1"></feGaussianBlur>
            <feColorMatrix values="0 0 0 0 0   0 0 0 0 0   0 0 0 0 0  0 0 0 0.3 0" type="matrix" in="shadowBlurOuter1"></feColorMatrix>
        </filter>
        <filter x="-69.7%" y="-41.5%" width="239.4%" height="230.6%" filterUnits="objectBoundingBox" id="filter-5">
            <feGaussianBlur stdDeviation="1" in="SourceAlpha" result="shadowBlurInner1"></feGaussianBlur>
            <feOffset dx="0" dy="1" in="shadowBlurInner1" result="shadowOffsetInner1"></feOffset>
            <feComposite in="shadowOffsetInner1" in2="SourceAlpha" operator="arithmetic" k2="-1" k3="1" result="shadowInnerInner1"></feComposite>
            <feColorMatrix values="0 0 0 0 0.600514482   0 0 0 0 1   0 0 0 0 0.949191309  0 0 0 0.5 0" type="matrix" in="shadowInnerInner1"></feColorMatrix>
        </filter>
    </defs>
    <g id="页面-1" stroke="none" stroke-width="1" fill="none" fill-rule="evenodd">
        <g id="画板" transform="translate(-20.000000, -573.000000)">
            <g id="服务器接口模块" transform="translate(20.000000, 573.000000)">
                <rect id="矩形" x="0" y="0" width="20" height="20"></rect>
                <g id="形状" fill-rule="nonzero">
                    <use fill="#19BC9C" xlink:href="#path-1"></use>
                    <use fill="black" fill-opacity="1" filter="url(#filter-2)" xlink:href="#path-1"></use>
                </g>
                <g id="形状结合" fill-rule="nonzero">
                    <use fill="black" fill-opacity="1" filter="url(#filter-4)" xlink:href="#path-3"></use>
                    <use fill="#FFC123" xlink:href="#path-3"></use>
                    <use fill="black" fill-opacity="1" filter="url(#filter-5)" xlink:href="#path-3"></use>
                </g>
            </g>
        </g>
    </g>
</svg>