<?xml version="1.0" encoding="UTF-8"?>
<svg width="18px" height="18px" viewBox="0 0 18 18" version="1.1" xmlns="http://www.w3.org/2000/svg" xmlns:xlink="http://www.w3.org/1999/xlink">
    <title>role</title>
    <g id="页面-1" stroke="none" stroke-width="1" fill="none" fill-rule="evenodd" opacity="0.8">
        <g id="02数据集管理_新增编辑" transform="translate(-32.000000, -462.000000)">
            <g id="编组-3" transform="translate(0.000000, 106.000000)">
                <g id="编组-6" transform="translate(0.000000, 281.000000)">
                    <g id="role" transform="translate(32.000000, 75.000000)">
                        <rect id="矩形" x="0" y="0" width="18" height="18"></rect>
                        <path d="M15.75,1 C16.9926407,1 18,2.02334914 18,3.28571428 L18,14.7142857 C18,15.9766509 16.9926407,17 15.75,17 L2.25,17 C1.00735931,17 0,15.9766509 0,14.7142857 L0,3.28571428 C0,2.02334914 1.00735931,1 2.25,1 L15.75,1 Z M5.62856075,9.50653619 C3.80753888,9.50653619 2.18448557,10.931439 1.57856075,13.0620917 L9.67856075,13.0620917 C9.07263594,10.931439 7.44958262,9.50653619 5.62856075,9.50653619 Z M15.1785714,10.1428571 L11.25,10.1428571 L11.25,10.7142857 C11.25,11.029877 11.5058373,11.2857143 11.8214286,11.2857143 L15.1785714,11.2857143 C15.4941627,11.2857143 15.75,11.029877 15.75,10.7142857 C15.75,10.3986944 15.4941627,10.1428571 15.1785714,10.1428571 Z M5.62500001,4.68253969 C4.38235932,4.68253969 3.37500001,5.70588883 3.37500001,6.96825397 C3.37500001,8.23061911 4.38235932,9.25396825 5.62500001,9.25396825 C6.42884759,9.25396825 7.1716334,8.81831359 7.5735572,8.11111113 C7.975481,7.40390866 7.975481,6.53259928 7.5735572,5.82539682 C7.1716334,5.11819435 6.42884759,4.68253969 5.62500001,4.68253969 Z M15.1785714,6.71428572 L11.25,6.71428572 L11.25,7.28571429 C11.25,7.60130557 11.5058373,7.85714286 11.8214286,7.85714286 L15.1785714,7.85714286 C15.4941627,7.85714286 15.75,7.60130557 15.75,7.28571429 C15.75,6.970123 15.4941627,6.71428572 15.1785714,6.71428572 Z" id="形状结合" fill="#19BC9C" fill-rule="nonzero"></path>
                    </g>
                </g>
            </g>
        </g>
    </g>
</svg>