<?xml version="1.0" standalone="no"?><!DOCTYPE svg PUBLIC "-//W3C//DTD SVG 1.1//EN" "http://www.w3.org/Graphics/SVG/1.1/DTD/svg11.dtd"><svg t="1650014000264" class="icon" viewBox="0 0 1024 1024" version="1.1" xmlns="http://www.w3.org/2000/svg" p-id="2601" width="200" height="200" xmlns:xlink="http://www.w3.org/1999/xlink"><defs><style type="text/css">@font-face { font-family: feedback-iconfont; src: url("//at.alicdn.com/t/font_1031158_u69w8yhxdu.woff2?t=1630033759944") format("woff2"), url("//at.alicdn.com/t/font_1031158_u69w8yhxdu.woff?t=1630033759944") format("woff"), url("//at.alicdn.com/t/font_1031158_u69w8yhxdu.ttf?t=1630033759944") format("truetype"); }
</style></defs><path d="M284.48 322.4a227.52 227.52 0 1 0 455.04 0 227.52 227.52 0 0 0-455.04 0z" fill="#159d87" opacity=".15" p-id="2602"></path><path d="M805.12 678.24l-144-160a246.24 246.24 0 0 1-298.08 0l-144 160A104.16 104.16 0 1 1 188.8 656l146.08-161.92a246.56 246.56 0 1 1 354.56 0L835.68 656a104 104 0 1 1-30.56 22.72z m-283.2 42.88a104.32 104.32 0 1 1-19.84 0h-9.12V569.44h38.08v151.68z m-123.68-224a208 208 0 0 0 227.52 0v-23.04a56.96 56.96 0 0 0-56.8-56.96H455.04a56.96 56.96 0 0 0-56.8 56.96v23.2z m-37.6-32a94.88 94.88 0 0 1 94.4-86.72h113.92a94.88 94.88 0 0 1 94.4 86.72 208 208 0 1 0-302.72 0zM512 304a56.96 56.96 0 1 0 0-113.76A56.96 56.96 0 0 0 512 304z m0 37.92a94.88 94.88 0 1 1 0-190.24 94.88 94.88 0 1 1 0 189.6zM142.24 816a66.4 66.4 0 1 0 0-132.64 66.4 66.4 0 1 0 0 132.64zM512 891.2a66.4 66.4 0 1 0 0-132.64 66.4 66.4 0 1 0 0 132.64zM881.76 816a66.4 66.4 0 0 0 0-132.64 66.4 66.4 0 1 0 0 132.64z" fill="#159d87" p-id="2603"></path></svg>